# xmcd
#
# Track frame offsets:
#	150
#	17364
#	38840
#	61486
#	81722
#	108503
#	128369
#	149535
#	174645
#	198357
#	215919
#	232701
#	252136
#	255275
#	270508
#	306520
#	328954
#
# Disc length: 4630 seconds
#
# Revision: 0
# Processed by: cddbd v1.5.1PL0 Copyright (c) Steve Scherf et al.
# Submitted via: EasyCDDAExtractor 8.1.0.1
#
DISCID=f3121411
DTITLE=John Baldwin - Wide Alive and Dreaming
DYEAR=2005
DGENRE=Blues
TTITLE0=Mistreated
TTITLE1=Perfect World
TTITLE2=Nothing Without Your Love
TTITLE3=Baby I Believe in You
TTITLE4=Somewhere Down the Road
TTITLE5=Redemption Blues
TTITLE6=Angel
TTITLE7=Higher and Higher
TTITLE8=Make a Wish
TTITLE9=Frazzled
TTITLE10=I've Been Down
TTITLE11=Love is a Nasty Business
TTITLE12=Six String Slinger
TTITLE13=Tempted
TTITLE14=Shades of You
TTITLE15=Wide Alive and Dreaming
TTITLE16=Just a Little
EXTD=
EXTT0=
EXTT1=
EXTT2=
EXTT3=
EXTT4=
EXTT5=
EXTT6=
EXTT7=
EXTT8=
EXTT9=
EXTT10=
EXTT11=
EXTT12=
EXTT13=
EXTT14=
EXTT15=
EXTT16=
PLAYORDER=
